<?xml version="1.0" encoding="UTF-8"?>
<!-- Option D Final: Irregular mesh full logo (dark theme) -->
<svg xmlns="http://www.w3.org/2000/svg" viewBox="0 0 240 72" width="240" height="72">
  <!-- Icon -->
  <g transform="translate(4, 0) scale(0.64)">
    <!-- Subtle grid -->
    <g stroke="#38BDF8" stroke-width="0.5" opacity="0.08">
      <line x1="0" y1="25" x2="100" y2="25"/>
      <line x1="0" y1="50" x2="100" y2="50"/>
      <line x1="0" y1="75" x2="100" y2="75"/>
      <line x1="25" y1="0" x2="25" y2="100"/>
      <line x1="50" y1="0" x2="50" y2="100"/>
      <line x1="75" y1="0" x2="75" y2="100"/>
    </g>

    <!-- Irregular mesh connections -->
    <g stroke="#38BDF8" stroke-width="1.5" fill="none">
      <line x1="22" y1="20" x2="50" y2="32"/>
      <line x1="50" y1="32" x2="78" y2="18"/>
      <line x1="22" y1="20" x2="15" y2="52"/>
      <line x1="78" y1="18" x2="85" y2="45"/>
      <line x1="15" y1="52" x2="35" y2="55"/>
      <line x1="35" y1="55" x2="50" y2="50"/>
      <line x1="50" y1="50" x2="68" y2="48"/>
      <line x1="68" y1="48" x2="85" y2="45"/>
      <line x1="15" y1="52" x2="28" y2="80"/>
      <line x1="35" y1="55" x2="50" y2="78"/>
      <line x1="50" y1="50" x2="50" y2="78"/>
      <line x1="68" y1="48" x2="72" y2="75"/>
      <line x1="85" y1="45" x2="72" y2="75"/>
      <line x1="28" y1="80" x2="50" y2="78"/>
      <line x1="50" y1="78" x2="72" y2="75"/>
      <line x1="22" y1="20" x2="35" y2="55" stroke-dasharray="3,2" opacity="0.5"/>
      <line x1="78" y1="18" x2="68" y2="48" stroke-dasharray="3,2" opacity="0.5"/>
      <line x1="50" y1="32" x2="50" y2="50" stroke-dasharray="3,2" opacity="0.5"/>
    </g>

    <!-- Orange accents -->
    <g stroke="#FB923C" stroke-width="2" fill="none">
      <line x1="35" y1="55" x2="68" y2="48"/>
      <line x1="50" y1="32" x2="35" y2="55" stroke-dasharray="4,3"/>
    </g>

    <!-- Primary nodes -->
    <g stroke="#38BDF8" stroke-width="2" fill="#1E293B">
      <circle cx="22" cy="20" r="4"/>
      <circle cx="78" cy="18" r="4"/>
      <circle cx="15" cy="52" r="3"/>
      <circle cx="85" cy="45" r="3"/>
      <circle cx="28" cy="80" r="4"/>
      <circle cx="72" cy="75" r="4"/>
    </g>

    <!-- Hub nodes - white -->
    <g stroke="#38BDF8" stroke-width="2" fill="#F8FAFC">
      <circle cx="50" cy="32" r="4"/>
      <circle cx="50" cy="78" r="4"/>
    </g>

    <!-- Central hub -->
    <circle cx="50" cy="50" r="7" stroke="#38BDF8" stroke-width="2" fill="#1E293B"/>
    <circle cx="50" cy="50" r="3.5" fill="#38BDF8"/>

    <!-- Secondary nodes -->
    <g stroke="#38BDF8" stroke-width="1.5" fill="#1E293B">
      <circle cx="35" cy="55" r="3"/>
      <circle cx="68" cy="48" r="3"/>
    </g>
    <g fill="#FB923C">
      <circle cx="35" cy="55" r="1.5"/>
      <circle cx="68" cy="48" r="1.5"/>
    </g>
  </g>

  <!-- Wordmark - centered vertically -->
  <text x="76" y="42"
        font-family="'JetBrains Mono', 'Fira Code', 'SF Mono', Consolas, monospace"
        font-size="32"
        font-weight="600"
        fill="#38BDF8"
        letter-spacing="-0.5px">MACULA</text>

  <!-- Official Microsoft C# 2023 logo badge: public domain (simple
       geometric shapes, per its Wikimedia Commons file page), with a
       trademark notice. Styled as an enlarged hub node, matching the
       Go/Rust/PHP badge treatment. -->
  <defs><linearGradient
       id="csharp-a"
       x1="46.773"
       x2="69.907"
       y1="86.462"
       y2="126.732"
       gradientTransform="translate(-233.983 -518.974) scale(8.78996)"
       gradientUnits="userSpaceOnUse">
      <stop
         stop-color="#927BE5"
         id="csharp-stop1" />
      <stop
         offset="1"
         stop-color="#512BD4"
         id="csharp-stop2" />
    </linearGradient></defs>
  <circle cx="54" cy="54" r="13" fill="#F8FAFC" stroke="#38BDF8" stroke-width="2"/>
  <g transform="translate(43.000, 43.000) scale(0.406004)"><path
     d="M135.731 285.85v173.93c0 21.517 11.478 41.418 30.125 52.168l150.624 86.976a60.223 60.223 0 0 0 60.25 0l150.623-86.976a60.237 60.237 0 0 0 30.124-52.169V285.851c0-21.525-11.477-41.423-30.124-52.177L376.729 146.72a60.21 60.21 0 0 0-60.249 0l-150.624 86.954a60.245 60.245 0 0 0-30.125 52.177z"
     fill="url(#csharp-a)"
     transform="matrix(.1 0 0 .1 -7.567 -10.189)"
     id="csharp-path12" /><path
     d="M54.056 98.03v6.855a1.711 1.711 0 0 0 1.714 1.714 1.713 1.713 0 0 0 1.714-1.714 1.713 1.713 0 1 1 3.427 0 5.14 5.14 0 1 1-10.282 0v-6.854a5.14 5.14 0 1 1 10.282 0 1.712 1.712 0 1 1-3.427 0 1.712 1.712 0 1 0-3.427 0zm27.418 6.855a1.712 1.712 0 0 1-1.714 1.714h-1.714v1.713c0 .455-.18.891-.502 1.212a1.71 1.71 0 0 1-2.423 0 1.719 1.719 0 0 1-.502-1.212v-1.713h-3.427v1.713a1.71 1.71 0 0 1-1.714 1.714 1.71 1.71 0 0 1-1.713-1.714v-1.713H66.05a1.713 1.713 0 1 1 0-3.427h1.714v-3.427H66.05a1.712 1.712 0 1 1 0-3.427h1.714v-1.714a1.713 1.713 0 1 1 3.427 0v1.713h3.427v-1.713a1.712 1.712 0 1 1 3.427 0v1.713h1.714c.454 0 .89.18 1.211.502a1.71 1.71 0 0 1 0 2.423 1.712 1.712 0 0 1-1.211.503h-1.714v3.427h1.714a1.718 1.718 0 0 1 1.714 1.713zm-6.855-5.14h-3.427v3.427h3.427z"
     fill="#fff"
     transform="matrix(.879 0 0 .879 -30.965 -62.086)"
     id="csharp-path13" /></g>
</svg>
